<svg width="32" height="40" viewBox="0 0 32 40" fill="none" xmlns="http://www.w3.org/2000/svg">
<path d="M31.2285 3.65439L16.2908 0.0344797C16.2849 0.0330317 16.2788 0.0325792 16.2729 0.0312217C16.2383 0.0233484 16.203 0.0171041 16.1671 0.0122172C16.1555 0.0106787 16.144 0.00895928 16.1323 0.00769231C16.0897 0.00316742 16.0466 0.000180996 16.0026 0L15.9999 0C15.9548 0 15.9106 0.00316742 15.867 0.00787331C15.8565 0.00904978 15.846 0.0105882 15.8355 0.0119457C15.7975 0.0170136 15.7603 0.0236199 15.7237 0.0320362C15.7192 0.0331222 15.7144 0.0333937 15.7098 0.0345702L15.6861 0.0402715L15.6834 0.040905L0.771404 3.65439C0.31487 3.76507 0 4.12045 0 4.52489V39.095C0 39.3788 0.156214 39.6462 0.421915 39.8171C0.687616 39.9883 1.03201 40.0431 1.3524 39.9655L16.0004 36.4159L30.6476 39.9655C30.7432 39.9886 30.8409 39.9999 30.938 39.9999C31.1665 39.9999 31.3917 39.9371 31.5781 39.8171C31.8438 39.6461 32 39.3788 32 39.095V4.52489C32 4.12045 31.685 3.76507 31.2285 3.65439ZM2.12391 5.20842L14.938 2.10326V34.7917L2.12391 37.8969V5.20842ZM29.8761 37.8969L17.0619 34.7915V2.10308L29.8761 5.20842V37.8969Z" fill="#DEF0F2"/>
<path d="M19.3726 7.32933L24.8624 8.89042C24.9452 8.91395 25.0285 8.92517 25.1104 8.92517C25.5046 8.92517 25.8672 8.66553 25.9804 8.26752C26.1171 7.78671 25.8382 7.28626 25.3575 7.14952L19.8677 5.58843C19.3869 5.45178 18.8865 5.73069 18.7497 6.21132C18.613 6.69205 18.8919 7.19259 19.3726 7.32933Z" fill="#DEF0F2"/>
<path d="M19.3726 11.8548L24.8624 13.4159C24.9452 13.4394 25.0285 13.4507 25.1104 13.4507C25.5046 13.4507 25.8672 13.191 25.9804 12.793C26.1171 12.3122 25.8382 11.8117 25.3575 11.675L19.8677 10.1139C19.3869 9.97699 18.8865 10.2562 18.7497 10.7368C18.613 11.2175 18.8919 11.7181 19.3726 11.8548Z" fill="#DEF0F2"/>
<path d="M19.3726 16.3792L24.8624 17.9403C24.9452 17.9638 25.0285 17.975 25.1104 17.975C25.5046 17.975 25.8672 17.7154 25.9804 17.3174C26.1171 16.8366 25.8382 16.3361 25.3575 16.1994L19.8677 14.6383C19.3869 14.5015 18.8865 14.7806 18.7497 15.2612C18.613 15.7419 18.8919 16.2425 19.3726 16.3792Z" fill="#DEF0F2"/>
<path d="M20 20.5L24.5 21.5V33L20 31.5V20.5Z" fill="#FFDE29"/>
<path d="M19.3726 32.8501L24.8623 34.4112C24.9438 34.4343 25.027 34.4457 25.1098 34.4457C25.3045 34.4457 25.4964 34.3828 25.6553 34.2628C25.8817 34.0917 26.0148 33.8244 26.0148 33.5407V21.595C26.0148 21.1905 25.7464 20.8352 25.3573 20.7245L19.8676 19.1634C19.5946 19.0858 19.3011 19.1407 19.0746 19.3117C18.8482 19.4828 18.7151 19.7501 18.7151 20.0338V31.9795C18.7151 32.384 18.9835 32.7394 19.3726 32.8501ZM20.525 21.2321L24.2049 22.2785V32.3425L20.525 31.2961V21.2321Z" fill="#DEF0F2"/>
<path d="M6.88954 8.9253C6.97144 8.9253 7.05479 8.91408 7.13751 8.89055L12.6279 7.32937C13.1086 7.19263 13.3876 6.69209 13.2508 6.21136C13.1142 5.73064 12.6134 5.45173 12.1328 5.58847L6.64239 7.14964C6.16167 7.28639 5.88276 7.78693 6.0195 8.26765C6.13271 8.66566 6.49525 8.9253 6.88954 8.9253Z" fill="#DEF0F2"/>
<path d="M12.1329 10.1138L6.64252 11.675C6.16179 11.8117 5.88288 12.3123 6.01962 12.793C6.13274 13.191 6.49537 13.4507 6.88967 13.4507C6.97157 13.4507 7.05491 13.4394 7.13763 13.4159L12.628 11.8547C13.1088 11.718 13.3877 11.2174 13.2509 10.7367C13.1142 10.2561 12.6136 9.97717 12.1329 10.1138Z" fill="#DEF0F2"/>
</svg>
