<svg width="41" height="41" viewBox="0 0 41 41" fill="none" xmlns="http://www.w3.org/2000/svg">
<g clip-path="url(#clip0_1394_1498)">
<path d="M16.2292 13.6667H2.5625C1.14971 13.6667 0 12.517 0 11.1042V2.5625C0 1.14971 1.14971 0 2.5625 0H16.2292C17.642 0 18.7917 1.14971 18.7917 2.5625V11.1042C18.7917 12.517 17.642 13.6667 16.2292 13.6667ZM2.5625 1.70833C2.09271 1.70833 1.70833 2.091 1.70833 2.5625V11.1042C1.70833 11.5757 2.09271 11.9583 2.5625 11.9583H16.2292C16.699 11.9583 17.0833 11.5757 17.0833 11.1042V2.5625C17.0833 2.091 16.699 1.70833 16.2292 1.70833H2.5625Z" fill="#DEF0F2"/>
<rect x="1" y="18" width="17" height="22" rx="2" fill="#FFDE29"/>
<path d="M16.2292 40.9997H2.5625C1.14971 40.9997 0 39.85 0 38.4372V19.6455C0 18.2327 1.14971 17.083 2.5625 17.083H16.2292C17.642 17.083 18.7917 18.2327 18.7917 19.6455V38.4372C18.7917 39.85 17.642 40.9997 16.2292 40.9997ZM2.5625 18.7913C2.09271 18.7913 1.70833 19.174 1.70833 19.6455V38.4372C1.70833 38.9087 2.09271 39.2913 2.5625 39.2913H16.2292C16.699 39.2913 17.0833 38.9087 17.0833 38.4372V19.6455C17.0833 19.174 16.699 18.7913 16.2292 18.7913H2.5625Z" fill="#DEF0F2"/>
<path d="M38.4375 40.9997H24.7709C23.3581 40.9997 22.2084 39.85 22.2084 38.4372V29.8955C22.2084 28.4827 23.3581 27.333 24.7709 27.333H38.4375C39.8503 27.333 41 28.4827 41 29.8955V38.4372C41 39.85 39.8503 40.9997 38.4375 40.9997ZM24.7709 29.0413C24.3011 29.0413 23.9167 29.424 23.9167 29.8955V38.4372C23.9167 38.9087 24.3011 39.2914 24.7709 39.2914H38.4375C38.9073 39.2914 39.2917 38.9087 39.2917 38.4372V29.8955C39.2917 29.424 38.9073 29.0413 38.4375 29.0413H24.7709Z" fill="#DEF0F2"/>
<path d="M38.2292 23.9167H24.5625C23.1497 23.9167 22 22.767 22 21.3542V2.5625C22 1.14971 23.1497 0 24.5625 0H38.2292C39.6419 0 40.7917 1.14971 40.7917 2.5625V21.3542C40.7917 22.767 39.6419 23.9167 38.2292 23.9167ZM24.5625 1.70833C24.0927 1.70833 23.7083 2.091 23.7083 2.5625V21.3542C23.7083 21.8257 24.0927 22.2083 24.5625 22.2083H38.2292C38.6989 22.2083 39.0833 21.8257 39.0833 21.3542V2.5625C39.0833 2.091 38.6989 1.70833 38.2292 1.70833H24.5625Z" fill="#DEF0F2"/>
</g>
<defs>
<clipPath id="clip0_1394_1498">
<rect width="41" height="41" fill="white"/>
</clipPath>
</defs>
</svg>
